<svg xmlns="http://www.w3.org/2000/svg" viewBox="0 0 200 200" width="200" height="200">
  <rect width="200" height="200" rx="12" fill="#f0f4ff"/>
  <!-- Boys shirt -->
  <path d="M72 52 L86 46 L100 52 L114 46 L128 52 L131 65 L119 67 L117 150 L83 150 L81 67 L69 65 Z" fill="#1976d2" opacity="0.25"/>
  <!-- Boys shorts -->
  <path d="M83 147 L78 158 L98 158 L100 148 L102 158 L122 158 L117 147 Z" fill="#0d47a1" opacity="0.3"/>
  <!-- Shirt collar -->
  <path d="M90 52 L100 60 L110 52" stroke="#1565c0" stroke-width="2" fill="none"/>
  <!-- Soccer ball motif -->
  <circle cx="100" cy="100" r="16" fill="#f5f5f5" stroke="#1565c0" stroke-width="1.5" opacity="0.7"/>
  <path d="M100 84 L108 90 L105 100 L95 100 L92 90 Z" fill="#1565c0" opacity="0.4"/>
  <text x="100" y="178" text-anchor="middle" font-family="system-ui,sans-serif" font-size="14" font-weight="700" fill="#3e2000">Boys</text>
</svg>
