<svg xmlns="http://www.w3.org/2000/svg" viewBox="0 0 200 200" width="200" height="200">
  <rect width="200" height="200" rx="12" fill="#f0f4f8"/>
  <!-- Trousers shape -->
  <path d="M72 45 L128 45 L135 100 L115 100 L110 155 L90 155 L85 100 L65 100 Z" fill="#2d3748" opacity="0.25"/>
  <path d="M74 48 L126 48 L132 98 L114 98 L108 152 L92 152 L86 98 L68 98 Z" fill="#4a5568" opacity="0.35"/>
  <!-- Waistband -->
  <rect x="72" y="43" width="56" height="10" rx="3" fill="#2d3748" opacity="0.4"/>
  <!-- Crease lines -->
  <line x1="100" y1="58" x2="97" y2="148" stroke="rgba(255,255,255,0.4)" stroke-width="1.5"/>
  <!-- Belt loops -->
  <rect x="82" y="42" width="5" height="12" rx="1" fill="#2d3748" opacity="0.5"/>
  <rect x="95" y="42" width="5" height="12" rx="1" fill="#2d3748" opacity="0.5"/>
  <rect x="113" y="42" width="5" height="12" rx="1" fill="#2d3748" opacity="0.5"/>
  <text x="100" y="178" text-anchor="middle" font-family="system-ui,sans-serif" font-size="11" font-weight="700" fill="#3e2000">Pants &amp; Trousers</text>
</svg>
