<svg xmlns="http://www.w3.org/2000/svg" viewBox="0 0 200 200" width="200" height="200">
  <rect width="200" height="200" rx="12" fill="#fdf9ec"/>
  <!-- Kanjivaram - deep purple/maroon with gold zari -->
  <path d="M58 58 Q100 43 142 58 L145 144 Q100 163 55 144 Z" fill="#4a0e4e" opacity="0.2"/>
  <path d="M63 63 Q100 50 137 63 L140 138 Q100 156 60 138 Z" fill="#6b2d6f" opacity="0.35"/>
  <!-- Zari (gold) border stripes -->
  <path d="M65 67 Q100 54 135 67" stroke="#d4a000" stroke-width="4" fill="none" opacity="0.9"/>
  <path d="M65 74 Q100 61 135 74" stroke="#d4a000" stroke-width="2" fill="none" opacity="0.6"/>
  <path d="M63 136 Q100 150 137 136" stroke="#d4a000" stroke-width="4" fill="none" opacity="0.9"/>
  <path d="M63 129 Q100 143 137 129" stroke="#d4a000" stroke-width="2" fill="none" opacity="0.6"/>
  <!-- Traditional motifs -->
  <path d="M85,95 Q100,82 115,95 Q100,108 85,95 Z" fill="#d4a000" opacity="0.5"/>
  <circle cx="100" cy="95" r="4" fill="#d4a000"/>
  <text x="100" y="178" text-anchor="middle" font-family="system-ui,sans-serif" font-size="12" font-weight="700" fill="#3e2000">Kanjivaram</text>
</svg>
