<svg xmlns="http://www.w3.org/2000/svg" viewBox="0 0 200 200" width="200" height="200">
  <rect width="200" height="200" rx="12" fill="#fdf3e0"/>
  <!-- Saree drape shape -->
  <ellipse cx="100" cy="80" rx="45" ry="55" fill="#805500" opacity="0.15"/>
  <path d="M55 60 Q70 40 100 35 Q130 40 145 60 L140 140 Q100 160 60 140 Z" fill="#805500" opacity="0.25"/>
  <path d="M65 65 Q100 50 135 65 L130 135 Q100 150 70 135 Z" fill="#a06800" opacity="0.4"/>
  <!-- Zari border pattern -->
  <path d="M68 68 Q100 55 132 68" stroke="#d4a000" stroke-width="3" fill="none"/>
  <path d="M70 130 Q100 145 130 130" stroke="#d4a000" stroke-width="3" fill="none"/>
  <!-- Decorative dots -->
  <circle cx="100" cy="90" r="4" fill="#d4a000"/>
  <circle cx="85" cy="100" r="3" fill="#d4a000" opacity="0.7"/>
  <circle cx="115" cy="100" r="3" fill="#d4a000" opacity="0.7"/>
  <circle cx="92" cy="112" r="2.5" fill="#d4a000" opacity="0.6"/>
  <circle cx="108" cy="112" r="2.5" fill="#d4a000" opacity="0.6"/>
  <!-- Label -->
  <text x="100" y="178" text-anchor="middle" font-family="system-ui,sans-serif" font-size="14" font-weight="700" fill="#3e2000">Sarees</text>
</svg>
